<?xml version="1.0" encoding="UTF-8" standalone="no"?>
<!-- Created with Inkscape (http://www.inkscape.org/) -->

<svg
   xmlns:dc="http://purl.org/dc/elements/1.1/"
   xmlns:cc="http://creativecommons.org/ns#"
   xmlns:rdf="http://www.w3.org/1999/02/22-rdf-syntax-ns#"
   xmlns:svg="http://www.w3.org/2000/svg"
   xmlns="http://www.w3.org/2000/svg"
   xmlns:xlink="http://www.w3.org/1999/xlink"
   xmlns:sodipodi="http://sodipodi.sourceforge.net/DTD/sodipodi-0.dtd"
   xmlns:inkscape="http://www.inkscape.org/namespaces/inkscape"
   version="1.0"
   width="220"
   height="220"
   id="svg2"
   inkscape:version="0.91 r13725"
   sodipodi:docname="icon.svg">
  <metadata
     id="metadata17">
    <rdf:RDF>
      <cc:Work
         rdf:about="">
        <dc:format>image/svg+xml</dc:format>
        <dc:type
           rdf:resource="http://purl.org/dc/dcmitype/StillImage" />
        <dc:title></dc:title>
      </cc:Work>
    </rdf:RDF>
  </metadata>
  <sodipodi:namedview
     pagecolor="#ffffff"
     bordercolor="#666666"
     borderopacity="1"
     objecttolerance="10"
     gridtolerance="10"
     guidetolerance="10"
     inkscape:pageopacity="0"
     inkscape:pageshadow="2"
     inkscape:window-width="1920"
     inkscape:window-height="1011"
     id="namedview15"
     showgrid="false"
     fit-margin-top="0"
     fit-margin-left="0"
     fit-margin-right="0"
     fit-margin-bottom="0"
     inkscape:zoom="2.1179487"
     inkscape:cx="-31.692424"
     inkscape:cy="128.57615"
     inkscape:window-x="-4"
     inkscape:window-y="40"
     inkscape:window-maximized="1"
     inkscape:current-layer="svg2" />
  <defs
     id="defs4">
    <linearGradient
       id="linearGradient2385">
      <stop
         id="stop2387"
         style="stop-color:#ffdd22;stop-opacity:1;"
         offset="0" />
      <stop
         id="stop2389"
         style="stop-color:#ffeeaa;stop-opacity:1"
         offset="1" />
    </linearGradient>
    <linearGradient
       x1="324.25897"
       y1="287.6767"
       x2="194.45436"
       y2="458.39249"
       id="linearGradient2391"
       xlink:href="#linearGradient2385"
       gradientUnits="userSpaceOnUse" />
    <filter
       height="1.2372104"
       y="-0.11860518"
       width="1.2165596"
       x="-0.10827981"
       id="filter3239">
      <feGaussianBlur
         id="feGaussianBlur3241"
         stdDeviation="9.2834045"
         inkscape:collect="always" />
    </filter>
    <linearGradient
       x1="324.25897"
       y1="287.6767"
       x2="194.45436"
       y2="458.39249"
       id="linearGradient3247"
       xlink:href="#linearGradient2385"
       gradientUnits="userSpaceOnUse" />
    <filter
       height="1.2372104"
       y="-0.11860518"
       width="1.2165596"
       x="-0.10827981"
       id="filter3239-1">
      <feGaussianBlur
         id="feGaussianBlur3241-5"
         stdDeviation="9.2834045"
         inkscape:collect="always" />
    </filter>
  </defs>
  <g
     transform="matrix(-1,0,0,1,405.36447,-273.45376)"
     id="layer1">
    <path
       transform="matrix(0.9365417,0,0,0.9365417,25.66264,17.988167)"
       d="m 171.17307,501.00544 c 39.94517,-76.75054 51.26889,-98.53548 55.67154,-170.45227 L 374.5816,304.0792 c 0,0 -39.99213,97.60816 24.03458,192.892 -88.47743,-2.95402 -126.11921,-11.94039 -227.44311,4.03424 z"
       id="path2393-8"
       style="fill:#4d4d4d;fill-opacity:0.6;fill-rule:evenodd;stroke:none;stroke-width:1px;stroke-linecap:butt;stroke-linejoin:miter;stroke-opacity:1;filter:url(#filter3239-1)"
       inkscape:connector-curvature="0"
       sodipodi:nodetypes="ccccc" />
    <g
       transform="matrix(0.9365417,0,0,0.9365417,18.623069,21.142942)"
       id="g3243">
      <path
         d="m 185.78145,492.13668 c 22.63509,-94.70674 6.52737,-152.15545 21.36141,-222.63164 l 205.71428,0 c -1.51244,47.89399 -2.01659,187.06268 0,222.85714 -83.80952,-9.34972 -143.26617,-12.58138 -227.07569,-0.2255 z"
         id="path2383"
         style="fill:url(#linearGradient3247);fill-opacity:1;fill-rule:evenodd;stroke:none;stroke-width:1px;stroke-linecap:butt;stroke-linejoin:miter;stroke-opacity:1"
         inkscape:connector-curvature="0"
         sodipodi:nodetypes="ccccc" />
    </g>
    <flowRoot
       xml:space="preserve"
       id="flowRoot4164"
       style="font-style:normal;font-weight:normal;font-size:40px;line-height:125%;font-family:Sans;letter-spacing:0px;word-spacing:0px;fill:#000000;fill-opacity:1;stroke:none;stroke-width:1px;stroke-linecap:butt;stroke-linejoin:miter;stroke-opacity:1"
       transform="matrix(-1,0,0,1,405.281,273.54565)"><flowRegion
         id="flowRegion4166"><rect
           id="rect4168"
           width="180.83536"
           height="154.39467"
           x="10.859564"
           y="18.523722" /></flowRegion><flowPara
         id="flowPara4170"></flowPara></flowRoot>    <g
       transform="matrix(-0.92312797,-0.38449287,-0.38449287,0.92312797,160.21411,-107.83255)"
       style="font-style:normal;font-weight:normal;font-size:40px;line-height:125%;font-family:Sans;letter-spacing:0px;word-spacing:0px;fill:#000000;fill-opacity:1;stroke:none;stroke-width:1px;stroke-linecap:butt;stroke-linejoin:miter;stroke-opacity:1"
       id="text4172">
      <path
         d="m -349.68741,302.78723 q -1.05957,0.3418 -4.88769,-1.12793 -3.79395,-1.46972 -8.57911,-2.42676 -4.78515,-0.95703 -8.47656,-0.27343 -3.6914,0.68359 -5.53711,3.82812 -1.8457,3.14453 -0.68359,7.99805 1.16211,4.85351 4.85351,10.18555 3.69141,5.33203 7.51954,11.14257 3.82812,5.77637 5.46875,8.64746 1.6748,2.8711 2.66601,5.94727 0.99121,3.04199 0.71777,6.3916 -0.27343,3.31543 -0.75195,5.43457 -0.44433,2.11914 -1.91406,4.78516 -1.43555,2.66601 -3.55469,4.47754 -2.08496,1.8457 -4.68262,1.6748 -2.56347,-0.1709 -3.89648,-3.38379 -1.33301,-3.17871 -1.26465,-5.33203 0.10254,-2.15332 0.37598,-3.52051 0.30762,-1.40136 0.71777,-1.81152 0.44434,-0.41016 0.64942,0.10254 0.23925,0.47851 -0.10254,2.59766 -0.30762,2.08496 0.71777,5.43457 1.02539,3.34961 3.07617,3.62304 2.05078,0.27344 3.82813,-1.8457 1.77734,-2.11914 2.93945,-4.99023 1.16211,-2.8711 1.50391,-6.76758 0.34179,-3.89649 -1.57227,-8.33985 -1.91406,-4.44336 -5.53711,-10.11718 -3.62305,-5.67383 -7.55371,-11.1084 -3.89648,-5.43457 -5.33203,-9.29688 -1.40137,-3.8623 -1.53809,-6.7334 -0.13672,-2.87109 0.6836,-5.02441 0.85449,-2.15332 3.17871,-3.99902 2.3584,-1.87989 6.01562,-2.1875 3.65723,-0.30762 8.5791,0.71777 4.92188,0.99121 8.64747,2.46094 3.72558,1.43554 3.72558,2.83691 z"
         style="font-style:normal;font-variant:normal;font-weight:normal;font-stretch:normal;font-size:70px;line-height:125%;font-family:'Honey I Stole Your Jumper';-inkscape-font-specification:'Honey I Stole Your Jumper, Normal';text-align:start;writing-mode:lr-tb;text-anchor:start"
         id="path4185"
         inkscape:connector-curvature="0" />
      <path
         d="m -345.44913,309.48645 q 0.75196,0 0.95703,1.23047 0.20508,1.23047 0.41016,4.375 0.20508,3.14453 -0.82031,8.20312 -1.02539,5.0586 -3.62305,13.94532 5.46875,-2.59766 8.47656,-2.32422 3.00782,0.27344 4.99024,1.16211 1.98242,0.88867 2.1875,1.53808 0.23926,0.61524 -0.27344,0.6836 -0.47852,0.0342 -3.00781,-0.99121 -2.5293,-1.02539 -5.74219,-0.41016 -3.21289,0.61523 -7.17773,2.39258 -2.05079,7.65625 -0.95704,11.41601 1.09375,3.75977 3.69141,5.33203 2.59766,1.57227 5.67383,0.61524 3.07617,-0.95703 4.64844,-2.29004 1.57226,-1.33301 1.98242,-1.23047 0.41015,0.10254 0.41015,0.78613 0,0.6836 -1.57226,2.11914 -1.57227,1.43555 -5.05859,2.73438 -3.48633,1.29883 -7.10938,-0.82031 -3.62305,-2.11914 -4.7168,-5.33203 -1.09375,-3.21289 0.82032,-12.23633 -3.14454,2.32422 -3.48633,2.1875 -0.3418,-0.13672 -0.1709,-0.61524 0.1709,-0.51269 1.12793,-1.23047 0.95703,-0.75195 2.80273,-2.11914 1.84571,-6.76757 3.28125,-12.37304 1.43555,-5.60547 1.74317,-9.12598 0.30761,-3.52051 0.27343,-5.22949 -0.0342,-1.70899 0.23926,-2.39258 z"
         style="font-style:normal;font-variant:normal;font-weight:normal;font-stretch:normal;font-size:70px;line-height:125%;font-family:'Honey I Stole Your Jumper';-inkscape-font-specification:'Honey I Stole Your Jumper, Normal';text-align:start;writing-mode:lr-tb;text-anchor:start"
         id="path4187"
         inkscape:connector-curvature="0" />
      <path
         d="m -327.47061,335.32629 q 1.23047,0.41016 0.68359,3.75977 -0.54687,3.34961 -1.23047,5.60547 -0.68359,2.25586 -1.36718,4.51172 -0.6836,2.25586 -0.27344,4.0332 0.41015,1.77734 1.43555,3.07617 1.02539,1.29883 1.12792,2.05078 0.13672,0.75196 -1.23046,0.54688 -1.33301,-0.20508 -2.42676,-1.77735 -1.09375,-1.57226 -1.26465,-3.93066 -0.1709,-2.3584 1.29883,-6.28906 1.46972,-3.93067 1.74316,-7.34863 0.27344,-3.41797 1.50391,-4.23829 z m 1.70898,-20.30273 q 1.77735,-0.30762 2.15332,1.16211 0.37598,1.46973 0.0684,2.70019 -0.30761,1.19629 -1.12793,1.64063 -0.82031,0.41016 -1.98242,-0.58106 -1.16211,-0.99121 -1.46973,-2.46093 -0.30761,-1.46973 2.3584,-2.46094 z"
         style="font-style:normal;font-variant:normal;font-weight:normal;font-stretch:normal;font-size:70px;line-height:125%;font-family:'Honey I Stole Your Jumper';-inkscape-font-specification:'Honey I Stole Your Jumper, Normal';text-align:start;writing-mode:lr-tb;text-anchor:start"
         id="path4189"
         inkscape:connector-curvature="0" />
      <path
         d="m -311.71378,333.75403 q 1.26465,-0.58106 3.28125,-1.12793 2.01661,-0.58106 2.97364,-0.30762 0.95703,0.27344 0.95703,0.61524 0,0.34179 -0.61524,0.75195 -0.61523,0.41016 -2.59765,0.88867 -1.98242,0.47852 -4.16992,1.64063 -2.1875,1.16211 -3.96485,3.21289 -1.77734,2.05078 -3.34961,5.05859 -1.57226,3.00781 -2.66601,7.04102 -1.09375,4.0332 0.68359,6.2207 1.77734,2.1875 6.28906,-0.41016 4.51172,-2.59765 7.92969,-6.5625 3.41797,-3.96484 4.85352,-6.28906 1.43554,-2.32422 2.22168,-1.91406 0.78613,0.41015 0.47851,1.5039 -0.30762,1.09375 -3.04199,4.64844 -2.73438,3.55469 -7.10938,7.45117 -4.375,3.89649 -7.82714,4.58008 -3.41797,0.6836 -5.19532,-1.12793 -1.74316,-1.81152 -1.64062,-4.64844 0.10254,-2.87109 0.54687,-4.81933 0.44434,-1.98242 1.60645,-4.34082 1.19629,-2.3584 3.14453,-5.19531 1.98242,-2.8711 3.93066,-4.47754 1.98243,-1.64063 3.28125,-2.39258 z"
         style="font-style:normal;font-variant:normal;font-weight:normal;font-stretch:normal;font-size:70px;line-height:125%;font-family:'Honey I Stole Your Jumper';-inkscape-font-specification:'Honey I Stole Your Jumper, Normal';text-align:start;writing-mode:lr-tb;text-anchor:start"
         id="path4191"
         inkscape:connector-curvature="0" />
      <path
         d="m -300.81046,352.89465 q 0.6836,-1.70898 3.07618,-3.82812 2.39257,-2.11914 3.8623,-6.18653 1.50391,-4.06738 3.04199,-8.10058 1.57227,-4.0332 2.76856,-7.10938 1.19629,-3.07617 2.3584,-6.63086 1.16211,-3.55468 1.77734,-5.22949 0.61523,-1.6748 0.92285,-2.08496 0.3418,-0.44433 0.82031,-0.27344 0.5127,0.13672 0.23926,1.70899 -0.27344,1.57226 -1.16211,4.10156 -0.88867,2.5293 -2.25586,6.42578 -1.36718,3.89649 -2.93945,8.06641 -1.57227,4.16992 -2.73437,7.17773 -1.16211,3.00782 -2.11915,5.19532 -0.95703,2.1875 -1.77734,4.78515 4.375,-3.6914 6.83594,-7.38281 2.46094,-3.69141 6.32324,-6.80176 3.86231,-3.11035 5.43457,-3.96484 1.57227,-0.85449 2.05078,-0.27344 0.47852,0.58105 -0.51269,1.23047 -0.99121,0.64941 -4.06739,2.97363 -3.07617,2.32422 -6.15234,6.08399 -3.07617,3.75976 -3.41797,6.90429 -0.3418,3.14453 2.1875,5.26367 2.5293,2.11915 6.2207,2.46094 3.69141,0.3418 7.10938,-0.61523 3.41797,-0.95703 4.64844,-1.16211 1.23047,-0.20508 1.5039,0.44433 0.27344,0.64942 -1.57226,1.53809 -1.84571,0.88867 -6.5625,1.53809 -4.7168,0.64941 -8.81836,-0.58106 -4.10156,-1.23047 -5.50293,-3.41797 -1.40137,-2.22168 -1.36719,-4.0332 0.0342,-1.8457 -1.05957,-1.16211 -1.09375,0.68359 -2.73437,2.46094 -1.64063,1.77734 -3.21289,5.05859 -1.57227,3.28125 -3.41797,7.51953 -1.84571,4.23828 -2.39258,4.8877 -0.54688,0.64941 -1.12793,0.10254 -0.58106,-0.54688 0.85449,-3.82813 1.43555,-3.28125 2.59766,-5.77637 1.12793,-2.49511 2.3584,-5.33203 1.23046,-2.87109 1.53808,-4.0332 0.3418,-1.19629 -1.5039,0.71777 -1.84571,1.91407 -2.11915,1.16211 z"
         style="font-style:normal;font-variant:normal;font-weight:normal;font-stretch:normal;font-size:70px;line-height:125%;font-family:'Honey I Stole Your Jumper';-inkscape-font-specification:'Honey I Stole Your Jumper, Normal';text-align:start;writing-mode:lr-tb;text-anchor:start"
         id="path4193"
         inkscape:connector-curvature="0" />
      <path
         d="m -288.60831,396.88391 q 0.92285,0.23926 1.19629,1.33301 0.27344,1.09375 1.36719,4.10156 1.09375,3.00781 2.93945,5.67383 1.84571,2.66602 5.60547,0.13672 3.75977,-2.5293 9.29688,-9.77539 5.53711,-7.2461 7.99804,-15.10742 2.46094,-7.86133 3.62305,-15.3125 1.16211,-7.45118 1.57227,-16.06446 -1.91407,4.10157 -4.03321,6.01563 -2.11914,1.91406 -5.33203,1.77734 -3.21289,-0.13672 -4.7168,-2.32422 -1.5039,-2.1875 -1.77734,-6.28906 -1.09375,3.82813 -2.5293,5.53711 -1.43554,1.70898 -4.30664,3.62305 -2.87109,1.91406 -3.48632,1.8457 -0.64942,-0.0684 -0.3418,-0.54688 0.27344,-0.47851 1.77734,-1.57226 1.50391,-1.09375 3.96485,-3.69141 2.46093,-2.59765 3.62304,-5.94726 1.16211,-3.34961 1.50391,-5.33203 0.3418,-1.98243 1.09375,-2.32422 0.75195,-0.3418 0.95703,0.41015 0.20508,0.75196 -0.23926,4.30664 -0.44433,3.55469 0.27344,5.87891 0.71777,2.32422 2.15332,3.62305 1.43555,1.29883 3.55469,0.75195 2.11914,-0.54687 3.89648,-2.87109 1.77735,-2.32422 2.8711,-5.12696 1.09375,-2.80273 1.6748,-3.14453 0.58106,-0.34179 0.82031,0.20508 0.23926,0.54688 0.23926,1.91406 0,1.36719 0.13672,6.28907 0.13672,4.92187 -1.29883,13.74023 -1.43555,8.81836 -4.10156,16.88477 -2.66602,8.0664 -8.06641,14.76562 -5.40039,6.69922 -9.98047,9.77539 -4.58007,3.07617 -6.83593,0.61524 -2.25586,-2.46094 -3.34961,-5.19532 -1.09375,-2.73437 -1.77735,-5.46875 -0.68359,-2.73437 0.0342,-3.11035 z"
         style="font-style:normal;font-variant:normal;font-weight:normal;font-stretch:normal;font-size:70px;line-height:125%;font-family:'Honey I Stole Your Jumper';-inkscape-font-specification:'Honey I Stole Your Jumper, Normal';text-align:start;writing-mode:lr-tb;text-anchor:start"
         id="path4195"
         inkscape:connector-curvature="0" />
    </g>
    <g
       transform="matrix(-0.97678136,-0.2142386,-0.2142386,0.97678136,91.056106,-52.835118)"
       style="font-style:normal;font-weight:normal;font-size:40px;line-height:125%;font-family:Sans;letter-spacing:0px;word-spacing:0px;fill:#000000;fill-opacity:1;stroke:none;stroke-width:1px;stroke-linecap:butt;stroke-linejoin:miter;stroke-opacity:1"
       id="text4180">
      <path
         d="m -350.16287,386.14645 q 0.54687,-0.58105 1.36719,-0.30761 0.82031,0.27343 1.26464,-2.1875 0.44434,-2.46094 0.23926,-3.52051 -0.20508,-1.09375 0.41016,-1.29883 0.64941,-0.20508 1.05957,1.29883 0.44433,1.46973 0.30762,3.17871 -0.13672,1.70898 -0.0684,4.0332 0.0684,2.32422 1.23046,5.19532 1.16211,2.87109 4.16993,8.88671 3.00781,6.01563 5.60547,10.86914 2.59765,4.85352 4.58007,8.68165 1.98243,3.82812 4.78516,7.79296 2.80273,3.96485 3.75977,1.23047 0.95703,-2.73437 1.64062,-7.65625 0.68359,-4.92187 2.39258,-13.19336 1.70898,-8.27148 3.89648,-14.90234 2.1875,-6.63086 3.55469,-9.43359 1.36719,-2.80274 2.73438,-3.62305 1.23046,0.41016 1.12792,1.36719 -0.0684,0.92285 -1.43554,3.21289 -1.36719,2.29004 -3.75977,9.57031 -2.3584,7.28027 -4.34082,16.44043 -1.94824,9.12598 -2.59765,13.60352 -0.61524,4.47753 -1.43555,7.10937 -0.78613,2.63184 -2.29004,2.87109 -1.50391,0.20508 -2.66602,-1.40136 -1.16211,-1.64063 -3.62304,-6.01563 -2.42676,-4.40918 -5.77637,-10.2539 -3.31543,-5.87891 -6.69922,-12.85157 -3.38379,-6.97265 -5.74219,-9.43359 -0.68359,2.59766 -1.23046,12.03125 -0.54688,9.43359 -0.88868,17.08984 -0.34179,7.65625 -0.47851,12.78321 -0.13672,5.12695 -0.75196,6.11816 -0.58105,0.99121 -1.6748,0.88867 -1.12793,-0.0684 -1.23047,-1.05957 -0.13672,-0.99121 0.58106,-4.10156 0.68359,-3.07617 1.05957,-5.77637 0.34179,-2.70019 0.75195,-10.04883 0.44434,-7.34863 1.23047,-19.65332 0.82031,-12.33886 -0.30762,-14.32129 -1.12793,-2.0166 -0.75195,-3.21289 z"
         style="font-style:normal;font-variant:normal;font-weight:normal;font-stretch:normal;font-size:70px;line-height:125%;font-family:'Honey I Stole Your Jumper';-inkscape-font-specification:'Honey I Stole Your Jumper, Normal';text-align:start;writing-mode:lr-tb;text-anchor:start"
         id="path4198"
         inkscape:connector-curvature="0" />
      <path
         d="m -309.07889,430.54587 q 0.95703,1.64062 2.93946,2.59765 1.98242,0.95704 4.30664,0.41016 2.32421,-0.54687 4.64843,-2.25586 2.32422,-1.70898 3.14453,-5.33203 0.82032,-3.62305 -0.34179,-6.97266 -1.16211,-3.34961 -6.08399,-6.08398 -3.96484,1.36719 -5.74218,3.21289 -1.77735,1.8457 -2.59766,4.23828 -0.82031,2.39258 -0.95703,5.19531 -0.13672,2.80274 0.68359,4.99024 z m 7.10938,-19.27735 q -2.05078,-1.74316 -3.38379,-2.29003 -1.29883,-0.54688 -1.26465,-0.95704 0.0342,-0.44433 0.41016,-0.37597 0.41015,0.0684 1.98242,0.75195 1.57226,0.68359 4.68261,2.39258 3.72559,-0.30762 5.2295,-0.0684 1.5039,0.20508 1.77734,0.51269 0.30762,0.30762 0.20508,0.47852 -0.0684,0.13672 -1.70899,0.0684 -1.64062,-0.10254 -3.96484,0.58105 4.10156,2.8711 5.40039,6.25489 1.29883,3.38379 1.02539,5.98144 -0.27344,2.59766 -1.43554,4.99024 -1.16211,2.3584 -3.31543,3.82812 -2.15332,1.43555 -4.92188,2.0166 -2.76855,0.58106 -6.11816,-0.85449 -3.34961,-1.43555 -4.10157,-5.36621 -0.75195,-3.96484 0.27344,-7.92969 1.02539,-3.99902 3.14453,-6.18652 2.11914,-2.1875 6.08399,-3.82813 z"
         style="font-style:normal;font-variant:normal;font-weight:normal;font-stretch:normal;font-size:70px;line-height:125%;font-family:'Honey I Stole Your Jumper';-inkscape-font-specification:'Honey I Stole Your Jumper, Normal';text-align:start;writing-mode:lr-tb;text-anchor:start"
         id="path4200"
         inkscape:connector-curvature="0" />
      <path
         d="m -281.73514,385.97556 q 0.75196,0 0.95703,1.23046 0.20508,1.23047 0.41016,4.375 0.20508,3.14454 -0.82031,8.20313 -1.02539,5.05859 -3.62305,13.94531 5.46875,-2.59765 8.47656,-2.32422 3.00782,0.27344 4.99024,1.16211 1.98242,0.88867 2.1875,1.53809 0.23925,0.61523 -0.27344,0.68359 -0.47852,0.0342 -3.00781,-0.99121 -2.5293,-1.02539 -5.74219,-0.41016 -3.21289,0.61524 -7.17773,2.39258 -2.05079,7.65625 -0.95704,11.41602 1.09375,3.75976 3.69141,5.33203 2.59766,1.57227 5.67383,0.61523 3.07617,-0.95703 4.64844,-2.29003 1.57226,-1.33301 1.98242,-1.23047 0.41015,0.10254 0.41015,0.78613 0,0.68359 -1.57226,2.11914 -1.57227,1.43555 -5.0586,2.73437 -3.48632,1.29883 -7.10937,-0.82031 -3.62305,-2.11914 -4.7168,-5.33203 -1.09375,-3.21289 0.82032,-12.23633 -3.14454,2.32422 -3.48633,2.1875 -0.3418,-0.13672 -0.1709,-0.61523 0.1709,-0.5127 1.12793,-1.23047 0.95703,-0.75195 2.80273,-2.11914 1.84571,-6.76758 3.28125,-12.37305 1.43555,-5.60547 1.74317,-9.12597 0.30761,-3.52051 0.27343,-5.2295 -0.0342,-1.70898 0.23926,-2.39257 z"
         style="font-style:normal;font-variant:normal;font-weight:normal;font-stretch:normal;font-size:70px;line-height:125%;font-family:'Honey I Stole Your Jumper';-inkscape-font-specification:'Honey I Stole Your Jumper, Normal';text-align:start;writing-mode:lr-tb;text-anchor:start"
         id="path4202"
         inkscape:connector-curvature="0" />
      <path
         d="m -255.79276,410.92673 q 1.94825,-0.61524 4.16993,0.30761 2.22168,0.92286 2.56347,3.14454 0.3418,2.1875 -0.82031,5.02441 -1.16211,2.83691 -3.24707,4.81934 -2.05078,1.98242 -4.30664,3.34961 -2.25586,1.333 -2.73438,1.26464 -0.44433,-0.0684 -0.30761,-0.71777 0.13672,-0.68359 1.91406,-1.98242 1.77734,-1.33301 3.89648,-3.38379 2.11915,-2.05078 3.00782,-4.7168 0.88867,-2.66601 0,-4.10156 -0.88867,-1.43555 -3.28125,-1.02539 -2.39258,0.41016 -5.67383,4.30664 -3.28125,3.89648 -4.99024,8.47656 -1.70898,4.58008 -0.68359,7.04102 1.02539,2.46094 4.16992,1.8457 3.14453,-0.61523 6.9043,-2.73437 3.75977,-2.11914 7.31445,-4.44336 3.55469,-2.32422 4.51172,-2.5293 0.99121,-0.20508 0.88867,0.5127 -0.0684,0.71777 -3.48632,3.07617 -3.41797,2.32422 -6.7334,4.30664 -3.31543,1.98242 -6.22071,3.14453 -2.90527,1.19629 -5.36621,0.78613 -2.42676,-0.41015 -3.45215,-2.15332 -0.99121,-1.74316 -0.82031,-4.5459 0.1709,-2.83691 1.87988,-6.76758 1.70899,-3.93066 5.2295,-7.99804 3.55468,-4.06738 5.67382,-4.30664 z"
         style="font-style:normal;font-variant:normal;font-weight:normal;font-stretch:normal;font-size:70px;line-height:125%;font-family:'Honey I Stole Your Jumper';-inkscape-font-specification:'Honey I Stole Your Jumper, Normal';text-align:start;writing-mode:lr-tb;text-anchor:start"
         id="path4204"
         inkscape:connector-curvature="0" />
      <path
         d="m -249.40115,436.28806 q 2.05078,2.46093 4.64843,2.52929 2.59766,0.0684 4.85352,-1.29883 2.25586,-1.36718 1.98242,-5.8789 -3.55469,1.36719 -11.48437,4.64844 z m 11.21093,-6.83594 q -0.68359,-1.77735 -2.25586,-6.15235 -1.57226,-4.375 -0.82031,-9.02343 0.75196,-4.64844 3.96485,-6.9043 3.21289,-2.25586 6.49414,-1.98242 3.28125,0.27344 5.46875,1.70898 2.1875,1.43555 3.21289,3.62305 1.02539,2.1875 1.19629,2.90527 0.17089,0.71778 -0.27344,0.95703 -0.44434,0.23926 -0.58106,-0.37597 -0.13671,-0.61524 -2.11914,-3.34961 -1.98242,-2.73438 -5.33203,-3.55469 -3.34961,-0.82031 -6.63086,1.29883 -3.28125,2.11914 -3.48633,7.86133 -0.20507,5.74218 2.93946,12.4414 4.78515,-2.1875 8.54492,-4.99023 3.75977,-2.80274 4.7168,-4.23828 0.95703,-1.43555 1.43554,-1.77735 0.47852,-0.34179 0.61524,0.0684 0.13672,0.41016 -0.61524,2.1875 -0.75195,1.77735 -3.00781,3.75977 -2.25586,1.98242 -4.7168,3.41797 -2.46093,1.43554 -6.42578,3.75976 -0.13672,5.19532 -1.64062,6.66504 -1.50391,1.46973 -3.82813,2.11914 -2.32422,0.64942 -4.58008,0.23926 -2.25585,-0.41016 -3.28125,-1.64062 -1.02539,-1.23047 -2.05078,-1.09375 -1.02539,0.13671 -2.59765,0.75195 -1.57227,0.61523 -2.15332,0.13672 -0.58106,-0.47852 0.68359,-1.16211 1.26465,-0.6836 7.14356,-3.14453 5.8789,-2.46094 9.98046,-4.51172 z"
         style="font-style:normal;font-variant:normal;font-weight:normal;font-stretch:normal;font-size:70px;line-height:125%;font-family:'Honey I Stole Your Jumper';-inkscape-font-specification:'Honey I Stole Your Jumper, Normal';text-align:start;writing-mode:lr-tb;text-anchor:start"
         id="path4206"
         inkscape:connector-curvature="0" />
    </g>
  </g>
</svg>
